<svg xmlns="http://www.w3.org/2000/svg" viewBox="0 0 48 48" width="48" height="48">
  <rect x="6" y="9" width="36" height="33" rx="3" fill="#fff" stroke="#3a6ea5" stroke-width="2"/>
  <rect x="6" y="9" width="36" height="9" rx="3" fill="#d40000"/>
  <rect x="13" y="5" width="4" height="8" rx="2" fill="#555"/>
  <rect x="31" y="5" width="4" height="8" rx="2" fill="#555"/>
  <g fill="#3a6ea5">
    <rect x="11" y="22" width="5" height="4"/><rect x="19" y="22" width="5" height="4"/><rect x="27" y="22" width="5" height="4"/><rect x="35" y="22" width="3" height="4"/>
    <rect x="11" y="29" width="5" height="4"/><rect x="19" y="29" width="5" height="4" fill="#d40000"/><rect x="27" y="29" width="5" height="4"/><rect x="35" y="29" width="3" height="4"/>
    <rect x="11" y="36" width="5" height="4"/><rect x="19" y="36" width="5" height="4"/><rect x="27" y="36" width="5" height="4"/>
  </g>
</svg>
