<svg xmlns="http://www.w3.org/2000/svg" viewBox="0 0 32 32" width="32" height="32">
  <rect x="2" y="6" width="28" height="20" rx="2" fill="#2a2a3a" stroke="#000" stroke-width="1"/>
  <!-- knobs -->
  <circle cx="7" cy="11" r="2.4" fill="#444" stroke="#ff2d95" stroke-width="0.8"/>
  <circle cx="14" cy="11" r="2.4" fill="#444" stroke="#00e5d0" stroke-width="0.8"/>
  <circle cx="21" cy="11" r="2.4" fill="#444" stroke="#ffd000" stroke-width="0.8"/>
  <!-- mini keys -->
  <g>
    <rect x="4" y="17" width="3.4" height="7" fill="#fff" stroke="#000" stroke-width="0.4"/>
    <rect x="7.4" y="17" width="3.4" height="7" fill="#fff" stroke="#000" stroke-width="0.4"/>
    <rect x="10.8" y="17" width="3.4" height="7" fill="#fff" stroke="#000" stroke-width="0.4"/>
    <rect x="14.2" y="17" width="3.4" height="7" fill="#fff" stroke="#000" stroke-width="0.4"/>
    <rect x="17.6" y="17" width="3.4" height="7" fill="#fff" stroke="#000" stroke-width="0.4"/>
    <rect x="21" y="17" width="3.4" height="7" fill="#fff" stroke="#000" stroke-width="0.4"/>
    <rect x="24.4" y="17" width="3.4" height="7" fill="#fff" stroke="#000" stroke-width="0.4"/>
    <rect x="6.5" y="17" width="2" height="4.4" fill="#111"/>
    <rect x="9.9" y="17" width="2" height="4.4" fill="#111"/>
    <rect x="16.7" y="17" width="2" height="4.4" fill="#111"/>
    <rect x="20.1" y="17" width="2" height="4.4" fill="#111"/>
    <rect x="23.5" y="17" width="2" height="4.4" fill="#111"/>
  </g>
</svg>
